<svg id="logosandtypes_com" xmlns="http://www.w3.org/2000/svg" viewBox="0 0 150 150"><path d="M0 0h150v150H0V0z" fill="none"/><path d="M113.3 126.1c3.1-5 10.1-16.8 9.5-27.2-1.6-25.7-25-31-47.4-42.1-21.1-10.5-21.6-25.4-21.6-25.4-2.2-23.1 23.4-20.1 23.4-20.1 14.9.5 23.1 15.8 23.1 15.8 4.1 7.3 4.3 15.3 4.5 15.8.3.6.8 0 1-.4.2-.4-.6-20.6-.6-21.8 0-1.8-.5-2.2-.5-2.2s-7.7-8.1-27.6-9c-10.3-.5-17.4 3.4-17.4 3.4-6.8 3.4-12.1 9.7-13 20.1-1.7 18.4 16.2 28.9 23 31.9 18.6 8.3 29.9 11.3 38.7 20.4 11.8 12.2 10.3 24.2 6.8 35.2 0 0-.9 2.4-2.2 4.9 0 0-.4.8 0 .9 0 0 .2-.1.3-.2zM33 72.9c-.7-.6-1.8 1.4-1.8 1.4-8.3 11.1-7.4 25.4-7.4 25.4C25.9 129.9 53 137 65 137.5c18.1.6 35-8.9 38.5-22.6 4.5-18.1-6.6-30-38.6-41.6-29.8-10.6-29.8-28.5-29.8-28.5-.5-2.4-.7-11.1 3.3-20.4.2-.7.6-1.4.5-1.4-.3-.3-1 .9-1 .9-.7 1-1.4 2-2 3.2 0 0-12.5 21.4-1.2 37.8 0 0 7.7 12.1 31.4 20.7 24.9 9.1 30.3 18.6 30.5 27.3.2 5.8-5.7 21.8-24.7 23.2-19.5 1.5-39.4-10.9-43.1-34 0 0-2.5-13.5 3.5-26.8.4-1 1-2.1.7-2.4z"/><path d="M125.9 69.4c0 1.9-.1 3.4-.2 6 0 .6.1 1.9-.7 1.8-.7 0-1-.8-1-.8-3.7-8-9-13.2-9-13.2-11.9-12-30.7-11-30.7-11-20.8-.1-34.4 18.4-34.4 18.4-15.1 19.6-5.1 38.1-5.1 38.1.2.3.7 1.2.8 1.3.1.1 0 .3 0 .4-.1.1-.1.1-.3.1-.1 0-.3-.3-.3-.3s-11.8-13.3.7-36.6c0 0 10.4-19 32.6-23.6 10-2.1 30.9-1.3 45.1 13.6.1-.1 2.6 2.4 2.5 5.8z"/></svg>