<?xml version="1.0" encoding="UTF-8"?>
<svg id="logosandtypes_com" data-name="logosandtypes com" xmlns="http://www.w3.org/2000/svg" viewBox="0 0 150 150">
  <defs>
    <style>
      .cls-1 {
        fill: none;
      }

      .cls-2 {
        fill: #58595b;
      }
    </style>
  </defs>
  <g id="Layer_2" data-name="Layer 2">
    <path id="Layer_3" data-name="Layer 3" class="cls-1" d="M0,0H150V150H0V0Z"/>
  </g>
  <path class="cls-2" d="M81.69,67.86c4.06,1.98,6.97,4.2,8.72,6.69,4.11,5.72,3.43,14.05-2.17,18.48-3.19,2.64-7.34,3.91-11.63,3.89-2.31,.06-4.59-.25-6.8-1.1-1.98-.73-3.95-1.69-5.98-2.88-1.24-.53-2.33,.77-3.1,1.66-.45,.51-.87,1.1-1.27,1.78h-.51l-1.21-18.06h.51c.25,1.78,.7,3.45,1.35,5.33,.37,1.02,.87,2.06,1.55,3.16,1.44,2.36,3.31,5.61,5.84,7.03,2.66,1.56,5.2,2.47,8.18,2.54,1.59,0,3.6-.06,5.05-.68,2.27-1.11,3.04-1.94,3.05-4.74,.03-3.79-6.97-7.62-10.24-9.68-8.05-4.65-15.7-8.49-15.78-18.71,.17-8.84,8.18-10.65,16.88-10.75,4.01-.02,7.79,1.8,11.4,3.61,.74,.25,1.23,.06,1.86-.4,.45-.34,.85-.73,1.24-1.21,.45-.51,.87-1.1,1.27-1.78h.51l1.47,13.74h-.56c-.11-.25-.31-.62-.56-1.07-.73-1.38-1.65-2.71-2.68-4.37-1.14-1.77-2.95-3.56-4.54-4.99-2.81-1.64-6.1-3.07-9.51-3.1-1.94,0-4.06,.73-5.16,2.51-1.4,2.62-.3,4.64,2.54,7.08,2.09,1.66,5.53,3.7,10.3,6.01Z"/>
  <path class="cls-2" d="M121.96,89.9c8.04-4.8,13.6-12.11,14.96-17.07,1.35-9.94-9.79-11.14-13.46-3.27-1.86,3.61-3.02,10.07-3.47,19.16-2.9,1.61-5.95,2.81-9.1,3.55,1.02-18.55,3.68-30,9.98-42.71,6.14,1.73,16.68-3.24,13.06-10.14-4.42-5.7-13.16,.56-14.62,7.62-18.12-1.78-32.48-6.64-42.77-14.49,2.29-2.4,4.91-4.49,7.86-6.22,8.07,4.23,14.22,6.49,18.26,6.72,8.34,.91,13.54-9.36,3.89-13.32-7.21-1.54-15.21,.6-22.18,4.29-3.1-1.65-5.79-3.22-7.48-4.25,5.02-4.33,5.19-12.86-1.81-13.3-6.92,.53-6.76,8.92-1.81,13.26-1.69,1.02-4.4,2.63-7.53,4.29-6.88-3.66-15.18-5.91-22.29-4.23-9.43,4.02-4.41,14.15,4.01,13.29,4.06-.23,10.22-2.48,18.29-6.72,2.96,1.71,5.6,3.82,7.89,6.25-10.31,7.83-24.76,12.7-42.94,14.46-1.46-7.07-10.24-13.36-14.64-7.56-3.12,5.77,4.4,10.49,10.22,10.39,1.05,0,2.11-.14,3.12-.39,6.3,12.73,8.99,24.19,10.01,42.76-3.18-.74-6.26-1.95-9.18-3.57-.45-9.09-1.61-15.55-3.47-19.13-3.62-7.95-14.94-6.67-13.43,3.39,1.33,4.83,6.89,12.13,14.96,16.93,.13,3.54,.13,6.7,.11,8.67-3.94-1.11-8.94,.31-10.6,3.69-.93,1.78-.76,3.81,.51,5.59,2.37,3.12,6.43,2.59,9.03-.14,1.52-1.61,2.46-3.79,2.68-6.15,1.72,.93,4.57,2.5,7.71,4.43,.28,9.4,3.98,17.78,7.65,21.39,3.46,2.79,8.31,2.74,10.39-1.41,1.35-2.6,.96-5.98-1.02-8.78-2.26-3.39-7.31-7.53-15.04-12.36,0-3.31,.45-6.55,1.32-9.66,6.6,4.38,25.51,18.79,32.72,30.67-5.03,4.54-6.03,15.94,1.37,16.49h.08c7.35-.62,6.45-11.7,1.4-16.5,7.17-11.83,25.97-26.18,32.65-30.61,.88,3.1,1.31,6.34,1.31,9.64-7.73,4.8-12.81,8.97-15.04,12.33-3.49,4.69-1.78,11.96,4.35,12.13,1.66,0,3.41-.68,5.16-2,3.56-3.53,7.25-11.94,7.53-21.31,2.93-1.8,5.61-3.31,7.36-4.25,.49,4.11,3.38,8.11,7.49,8.23,1.64,0,3.08-.76,4.23-2.2,3.38-4.89-1.77-9.71-7.12-9.62-.9,0-1.78,.1-2.65,.31-.03-1.97-.02-5.07,.12-8.56Zm3.33-19.47c1.95-3.98,6.16-5.3,8.66-2.71,.96,1.13,1.3,2.77,1.02,4.66-1.16,4.23-5.9,10.53-12.87,15.04,.48-7.99,1.55-13.83,3.19-16.99Zm-19.27-48.76c6.72,2.56,3.7,10.01-3.13,9.37-3.53-.2-9.14-2.23-16.25-5.87,6.17-2.95,13.17-4.77,19.39-3.5Zm-58.64,9.37c-7.08,.58-9.61-6.85-3.22-9.31,6.17-1.35,13.27,.49,19.47,3.44-7.11,3.64-12.7,5.67-16.25,5.87ZM15.29,72.52c-.55-3.26,.83-6.06,4.06-6.12,1.78,0,4.15,1.07,5.59,4.09,1.64,3.13,2.71,8.97,3.19,16.96-6.97-4.52-11.71-10.84-12.84-14.93Zm10.55,33.72c-1.75,1.84-4.32,2.42-5.93,.34-2.41-3.52,1.84-6.47,5.56-6.41,.85,0,1.69,.14,2.54,.37-.03,2.2-.79,4.23-2.17,5.7Zm27.26,12.05c2.71,3.82,1.47,8.78-2.68,8.95-1.21,0-2.54-.51-3.75-1.44-3.13-3.05-6.35-10.27-6.89-18.54,6.77,4.32,11.34,8.1,13.32,11.03Zm50.54,7.45c-5.77,4.39-10.47-1.88-6.49-7.45,1.98-2.93,6.55-6.74,13.29-11.03-.54,8.3-3.75,15.49-6.8,18.48Zm26.02-86.49c1.13,0,2,.42,2.57,1.27,.62,1.02,.62,2.12-.03,3.25-1.64,3-7.03,4.85-10.92,3.81,.96-4.68,5.19-8.35,8.38-8.32ZM71.93,10.94c.25-.9,1.02-2.4,3.16-2.46,2.23,.06,2.96,1.55,3.22,2.46,.65,2.2-.28,5.45-3.19,7.65-2.91-2.2-3.81-5.45-3.19-7.65Zm-4.09,14.31c3.19-1.75,5.87-3.36,7.28-4.2,1.41,.87,4.09,2.46,7.28,4.2-2.68,1.69-5.14,3.7-7.28,5.98-2.14-2.29-4.6-4.29-7.28-5.98ZM26.26,47.82c-3.56,0-7.11-1.72-8.47-4.09-.65-1.13-.68-2.23-.08-3.19,3.15-4.06,10.16,1.92,10.98,7-.76,.2-1.58,.28-2.43,.28Zm11.43,55.76c-3.1-1.89-5.84-3.36-7.31-4.15,.03-1.66,.06-4.77-.06-8.41,2.82,1.47,5.79,2.54,8.83,3.25-.87,3.02-1.35,6.12-1.47,9.31Zm40.41,34.15c-.37,1.13-1.21,2.48-2.99,2.54-1.78-.06-2.6-1.41-2.99-2.54-.99-2.85-.08-7.48,2.99-10.47,3.08,2.99,3.98,7.65,2.99,10.47Zm-2.99-13.52c-7.87-12.47-27.68-27.32-33.67-31.18-.96-19.22-3.64-30.99-10.05-44.02,18.48-1.86,33.16-6.89,43.71-15.01,10.53,8.1,25.23,13.15,43.71,15.01-6.38,13.07-9.06,24.83-10.05,44.02-6.01,3.84-25.79,18.71-33.67,31.18Zm35.98-29.94c3.05-.68,6.01-1.78,8.83-3.25-.11,3.64-.08,6.74-.06,8.41-1.47,.79-4.18,2.29-7.31,4.15-.11-3.19-.59-6.32-1.47-9.31Zm19.19,8.83c.56,1.13,.45,2.31-.31,3.41-.73,.93-1.58,1.38-2.6,1.38-3.34-.14-5.57-4.04-5.53-7.37,3.41-.99,7.2,.25,8.44,2.57Z"/>
</svg>